<?xml version="1.0" standalone="no"?>
<!DOCTYPE svg PUBLIC "-//W3C//DTD SVG 20010904//EN"
 "http://www.w3.org/TR/2001/REC-SVG-20010904/DTD/svg10.dtd">
<svg version="1.0" xmlns="http://www.w3.org/2000/svg"
 width="1280.000000pt" height="1062.000000pt" viewBox="0 0 1280.000000 1062.000000"
 preserveAspectRatio="xMidYMid meet">
<g transform="translate(0.000000,1062.000000) scale(0.100000,-0.100000)"
fill="#4caf50" stroke="none">
<path d="M4225 10614 c-22 -2 -89 -9 -150 -14 -60 -6 -150 -18 -200 -26 -89
-15 -327 -65 -333 -70 -2 -1 6 -12 17 -23 30 -30 27 -51 -6 -51 -39 -1 -99
-30 -166 -83 -32 -25 -71 -49 -88 -52 -23 -5 -29 -11 -24 -23 24 -57 18 -66
-62 -118 -29 -19 -53 -37 -54 -41 0 -5 -2 -27 -4 -49 -2 -30 -18 -65 -53 -120
-62 -97 -72 -122 -72 -184 0 -47 -2 -49 -42 -72 -39 -21 -43 -27 -43 -63 0
-36 3 -40 31 -45 40 -9 54 -18 54 -37 0 -11 -5 -13 -17 -7 -10 4 -37 9 -59 12
l-42 4 -22 -59 c-33 -88 -36 -126 -12 -165 15 -24 18 -38 11 -50 -41 -73 -60
-264 -40 -407 6 -46 29 -161 50 -255 22 -94 44 -197 51 -228 8 -41 22 -70 47
-100 l36 -43 -5 -150 c-6 -168 4 -230 44 -273 14 -15 54 -69 88 -121 54 -82
61 -98 54 -120 -11 -32 -50 -39 -93 -17 -16 9 -38 16 -49 16 -24 0 -118 39
-155 64 -43 29 -116 33 -147 8 -20 -17 -23 -24 -14 -39 18 -31 75 -63 110 -63
46 0 163 -49 176 -74 6 -11 7 -21 2 -23 -5 -2 -40 -21 -79 -42 -81 -46 -154
-103 -350 -275 -332 -290 -436 -354 -725 -446 -195 -62 -267 -96 -324 -154
-110 -114 -146 -304 -90 -487 4 -14 -3 -17 -38 -17 -66 -1 -128 -61 -143 -138
-5 -31 -1 -44 24 -83 46 -68 86 -158 105 -231 20 -77 32 -236 21 -276 -6 -24
-13 -4 -37 109 -43 205 -87 307 -156 356 l-30 21 -21 -54 c-11 -30 -49 -118
-84 -197 -35 -79 -70 -160 -77 -179 -28 -70 -81 -147 -165 -240 -48 -52 -128
-158 -179 -235 -51 -77 -136 -205 -188 -285 -53 -80 -144 -208 -204 -285 -204
-264 -262 -364 -284 -482 -6 -37 -10 -165 -8 -325 1 -145 -2 -339 -6 -433 -7
-148 -6 -181 10 -260 17 -83 19 -133 16 -631 l-3 -542 58 -60 c108 -110 250
-154 393 -121 24 5 105 45 180 88 169 97 198 109 399 166 169 47 260 86 298
127 30 32 53 90 53 134 l0 37 -40 -7 c-33 -5 -41 -3 -50 13 -6 11 -57 84 -113
163 -323 448 -437 687 -483 1016 -22 158 -15 386 13 407 10 8 25 15 33 15 33
0 40 -22 40 -134 0 -145 15 -274 40 -338 11 -29 24 -87 30 -130 19 -137 67
-260 156 -396 65 -100 76 -114 281 -359 84 -101 153 -189 153 -196 0 -7 11
-36 25 -64 19 -37 34 -54 56 -62 30 -10 31 -9 51 37 18 40 19 52 10 87 -6 22
-7 41 -2 43 5 2 16 26 26 54 15 45 15 52 1 65 -22 22 -45 9 -63 -32 -16 -39
-35 -51 -57 -38 -19 11 -271 311 -348 415 -122 165 -189 307 -207 443 -8 64
-8 67 14 77 18 9 25 25 38 97 8 47 20 136 26 196 6 61 15 114 20 119 16 16 43
-76 80 -269 11 -60 25 -114 30 -119 15 -15 40 2 40 27 0 75 -69 354 -160 647
-48 154 -77 297 -84 415 l-6 90 113 102 c137 126 197 170 296 221 100 52 192
82 266 87 33 2 92 11 130 19 95 21 346 22 405 1 23 -8 53 -15 65 -15 30 0 85
-46 85 -72 0 -10 5 -28 11 -40 6 -11 9 -21 7 -24 -12 -12 -142 -35 -270 -48
-80 -9 -168 -20 -195 -26 -50 -12 -127 -51 -140 -73 -4 -7 -47 -26 -95 -41
-54 -17 -140 -59 -225 -108 -76 -44 -164 -93 -196 -109 -62 -32 -76 -51 -57
-74 20 -25 41 -18 161 51 264 153 355 194 430 194 21 0 123 14 226 31 295 48
463 34 463 -39 0 -23 -10 -32 -59 -59 -33 -18 -66 -33 -74 -33 -30 0 -234 -64
-340 -106 -119 -48 -592 -285 -617 -310 -17 -17 -4 -47 23 -52 8 -2 95 39 194
90 333 174 541 260 720 301 71 16 73 14 73 -55 0 -38 -6 -45 -114 -149 -184
-177 -164 -164 -396 -248 -256 -93 -383 -173 -460 -289 -36 -54 -37 -95 -4
-100 17 -2 29 9 52 46 50 82 117 139 227 192 82 39 368 150 389 150 3 0 8 -16
12 -35 8 -44 -14 -106 -55 -156 -57 -68 -221 -185 -314 -223 -109 -43 -189
-100 -185 -130 4 -31 34 -31 70 -1 17 14 53 37 79 51 l49 24 -5 -72 c-3 -40
-10 -147 -15 -238 -14 -229 -33 -299 -121 -437 -25 -39 -13 -73 26 -73 28 0
56 27 92 88 65 109 88 226 102 512 6 107 13 210 17 227 5 26 24 46 95 99 125
93 195 171 215 241 9 31 14 69 10 87 -3 17 -7 38 -8 47 -2 10 49 64 130 139
l133 123 42 -14 c25 -7 101 -14 187 -15 80 -1 160 -3 177 -3 26 -1 39 -9 62
-42 17 -22 37 -62 47 -87 9 -26 32 -79 50 -119 19 -39 34 -88 34 -107 0 -40
-71 -227 -180 -476 -159 -362 -213 -489 -250 -585 -117 -308 -177 -574 -200
-880 -6 -77 -19 -176 -30 -220 -11 -44 -31 -163 -45 -265 -15 -102 -37 -264
-51 -360 -14 -96 -36 -257 -49 -358 -14 -100 -29 -199 -34 -220 -5 -20 -11
-77 -13 -127 -3 -82 -1 -90 16 -93 27 -6 46 24 46 69 0 43 8 69 21 69 5 0 9
-26 9 -59 0 -62 14 -86 47 -79 13 2 19 14 21 43 2 39 62 426 83 535 5 30 21
116 34 190 35 197 58 251 85 201 6 -12 17 -21 25 -21 15 0 19 12 30 75 3 22
28 130 55 240 26 110 54 229 60 265 15 85 55 206 80 248 35 57 50 41 87 -93
119 -425 258 -1049 287 -1287 20 -159 40 -221 88 -272 l38 -40 16 23 c47 66
90 234 119 456 10 78 69 337 169 740 219 884 228 927 191 941 -24 10 -45 -16
-45 -55 0 -33 -15 -108 -41 -203 -7 -26 -15 -38 -28 -38 -16 0 -19 14 -25 131
-30 576 -198 1101 -510 1593 -45 72 -91 152 -100 179 -10 26 -37 73 -61 106
-41 56 -43 60 -34 105 32 173 55 469 69 881 11 323 18 459 41 738 14 174 2
275 -42 364 -49 102 -119 142 -247 143 l-73 0 -26 57 c-40 87 -50 194 -30 328
17 121 55 262 91 341 l23 51 149 24 c193 31 323 32 380 2 65 -35 69 -43 55
-126 -7 -40 -30 -153 -52 -252 -21 -99 -46 -223 -54 -275 -8 -52 -17 -106 -20
-120 -3 -14 -9 -151 -15 -305 -11 -316 -6 -413 40 -715 16 -107 34 -244 40
-305 56 -563 176 -1192 301 -1585 18 -57 36 -144 45 -218 7 -67 25 -170 38
-230 13 -59 27 -134 31 -167 9 -87 13 -102 30 -108 8 -4 21 0 28 8 19 19 13
81 -29 289 -19 93 -34 185 -34 205 l1 36 56 -60 c30 -33 140 -173 243 -311
242 -324 345 -442 480 -551 19 -15 35 -37 35 -48 0 -13 14 -27 39 -40 22 -11
41 -26 44 -33 8 -24 46 -11 84 30 21 23 38 46 39 52 1 6 23 31 49 54 48 43 50
43 83 31 34 -12 36 -11 99 38 34 28 119 109 188 180 178 182 258 283 535 678
93 132 214 301 269 375 99 132 101 134 104 100 6 -54 -27 -319 -48 -390 -85
-291 -116 -569 -107 -980 6 -292 18 -433 77 -895 22 -170 51 -395 64 -500 13
-104 27 -221 31 -260 3 -38 8 -84 11 -102 9 -59 74 -52 74 8 0 48 50 190 102
290 48 93 86 150 278 424 l95 136 7 -43 c11 -69 10 -376 -2 -479 -20 -170
-135 -768 -152 -784 -3 -3 -25 -9 -49 -13 -29 -5 -44 -13 -44 -22 0 -12 16
-14 90 -12 50 2 99 10 110 17 45 28 124 320 241 890 76 370 78 384 77 520 0
168 -7 214 -83 597 -46 229 -60 317 -60 385 0 93 -19 187 -46 228 -15 24 -15
30 5 93 11 37 34 132 51 212 33 161 58 242 94 304 19 34 25 66 35 181 23 272
51 354 161 469 43 45 84 95 93 111 28 57 55 162 91 357 40 217 63 302 110 398
l31 65 3 -106 3 -106 117 -91 c163 -126 365 -308 652 -587 408 -396 822 -762
950 -839 206 -125 477 -196 748 -196 132 0 145 2 258 37 149 47 253 52 303 16
37 -28 53 -29 76 -3 25 28 48 26 39 -2 l-6 -23 23 21 c42 37 51 39 218 44 151
5 165 7 177 26 12 18 11 25 -14 65 l-29 45 21 16 c20 15 24 14 51 -9 17 -13
47 -35 68 -49 l37 -24 39 26 c56 37 90 94 114 193 11 47 24 90 28 95 4 5 29 1
56 -9 26 -9 71 -20 98 -24 28 -5 91 -20 140 -35 120 -36 180 -42 227 -23 42
18 78 68 78 108 0 36 -8 40 -42 23 -47 -24 -57 -10 -13 19 76 50 134 61 285
51 290 -18 341 -12 408 50 30 27 65 94 58 111 -3 8 -20 15 -38 17 l-33 3 -6
110 c-3 61 -9 118 -13 127 -6 13 7 27 54 62 34 25 68 46 76 46 16 0 34 -60 34
-116 0 -49 21 -74 45 -54 20 17 20 103 -1 167 -16 49 -16 50 22 179 34 118 38
141 40 264 1 101 6 145 19 174 23 53 13 88 -23 84 -22 -2 -32 -14 -54 -59 -24
-52 -34 -61 -103 -99 -70 -39 -79 -41 -102 -29 -38 20 -56 66 -62 159 -6 82
-5 87 27 144 47 85 95 150 202 275 90 105 97 110 130 108 l35 -2 3 -57 c3 -64
21 -89 48 -67 13 11 15 28 9 114 -4 63 -13 109 -23 125 -10 16 -16 51 -17 105
-2 134 -62 228 -184 290 -28 14 -57 25 -65 25 -25 0 -27 16 -10 91 9 39 14 88
10 107 -8 50 -63 127 -110 153 -122 69 -314 -17 -391 -175 l-26 -54 -57 14
c-31 7 -75 13 -98 14 -22 0 -44 4 -50 10 -15 15 -126 37 -164 33 -46 -6 -147
28 -217 73 l-53 34 -9 -22 c-5 -13 -12 -38 -15 -55 -5 -23 -20 -41 -49 -60
-76 -50 -111 -168 -72 -242 14 -27 13 -31 -15 -66 -43 -54 -79 -132 -91 -200
-24 -132 -91 -229 -254 -372 -55 -49 -127 -113 -160 -144 l-60 -56 -115 -6
c-65 -3 -183 -19 -270 -36 -298 -59 -401 -58 -525 3 -90 44 -177 121 -311 271
-236 266 -302 330 -534 525 -131 110 -270 235 -309 277 -70 76 -71 77 -71 133
0 55 0 55 -54 98 -100 78 -197 227 -321 492 -96 206 -134 272 -298 519 -73
108 -140 212 -149 229 -13 25 -42 43 -140 91 -241 115 -534 189 -988 247 -141
18 -180 32 -450 162 -91 44 -192 89 -226 102 -36 13 -74 35 -92 54 -27 29
-123 76 -155 76 -14 0 -57 63 -57 83 0 22 -47 60 -103 83 -36 15 -53 29 -55
43 -6 38 27 126 102 278 40 81 81 169 89 194 49 145 19 293 -81 402 -43 47
-44 50 -38 97 4 27 13 68 21 91 21 59 20 92 -4 184 -16 58 -24 134 -32 280
-17 336 -39 406 -175 540 -197 195 -400 263 -809 270 -110 2 -218 1 -240 -1z
m5 -143 c0 -10 -15 -41 -33 -67 -48 -69 -67 -109 -67 -139 0 -22 -2 -24 -19
-13 -17 10 -17 13 -4 26 8 8 35 59 61 113 46 97 62 117 62 80z m-180 -321
c-33 -26 -52 -25 -21 0 13 11 28 20 35 20 6 0 0 -9 -14 -20z m1190 -63 c0 -24
-24 -37 -68 -37 -30 0 -42 4 -40 13 10 30 108 52 108 24z m-1295 -202 c-9 -43
-48 -169 -87 -279 -38 -111 -80 -238 -91 -283 -13 -49 -27 -83 -34 -83 -7 0
-13 10 -13 23 0 66 35 234 70 340 38 113 157 374 166 364 3 -2 -3 -40 -11 -82z
m871 -637 c56 -60 70 -130 83 -390 8 -157 13 -195 33 -244 13 -32 28 -59 34
-61 7 -2 25 7 40 21 l29 24 -3 133 c-3 124 -2 135 23 184 56 116 157 193 263
202 115 10 188 -65 199 -203 7 -82 -13 -146 -102 -323 -68 -137 -86 -185 -116
-303 l-11 -47 -71 -3 -71 -3 -20 -50 c-19 -51 -22 -103 -16 -317 4 -160 -54
-284 -267 -565 l-118 -157 -5 124 c-4 100 -8 125 -22 133 -12 8 -21 7 -34 -3
-15 -13 -16 -34 -12 -204 5 -168 3 -198 -14 -261 -24 -83 -70 -137 -157 -183
-109 -58 -313 -100 -418 -87 -211 26 -367 187 -403 415 -5 36 -10 68 -10 72 0
4 27 20 61 36 60 29 61 29 120 14 53 -13 61 -13 84 2 17 11 47 16 97 16 40 0
113 7 162 15 106 17 116 13 116 -52 0 -54 14 -83 40 -83 32 0 42 32 31 101
-10 57 -20 79 -47 104 -34 31 -24 43 89 106 212 118 361 232 355 273 -5 36
-36 30 -91 -20 -71 -64 -176 -134 -303 -200 -116 -62 -108 -61 -249 -30 -82
18 -194 20 -250 5 -53 -15 -120 -82 -134 -135 -10 -36 -17 -44 -54 -58 -52
-20 -51 -20 -116 0 l-52 15 6 137 c3 75 8 252 10 392 l5 255 -57 87 c-112 170
-246 276 -372 293 -50 7 -50 7 -60 53 -6 26 -26 117 -46 202 -50 214 -59 390
-25 504 l23 77 31 -6 c17 -4 116 -43 219 -87 215 -91 288 -109 369 -90 99 24
105 23 127 -13 29 -49 71 -67 155 -66 90 0 189 27 357 95 74 30 196 80 271
110 155 64 236 87 258 76 8 -5 25 -19 36 -32z m-1076 -57 c0 -5 -6 -24 -14
-42 l-14 -34 -18 37 c-14 30 -15 40 -5 52 10 12 18 13 32 5 10 -5 19 -14 19
-18z m-525 -975 c13 -13 40 -56 59 -95 36 -71 36 -71 77 -71 26 0 52 -8 70
-21 l30 -21 -2 -203 -2 -203 -56 5 c-75 8 -100 28 -173 136 -66 98 -88 159
-88 243 0 97 22 109 69 40 46 -67 126 -90 126 -36 0 18 -6 26 -22 28 -34 5
-103 93 -103 131 0 26 -6 34 -36 48 -32 16 -34 18 -18 30 26 19 42 16 69 -11z
m2136 -118 c7 -24 18 -50 26 -59 21 -25 49 -150 78 -349 15 -102 38 -228 52
-280 13 -52 26 -105 29 -116 2 -12 33 -129 68 -260 111 -416 145 -556 156
-654 7 -52 32 -196 56 -320 90 -465 103 -577 85 -774 -42 -459 -186 -990 -419
-1541 -216 -510 -679 -1336 -818 -1459 -43 -38 -60 -47 -71 -40 -41 25 -424
732 -593 1094 -317 676 -548 1313 -670 1848 -120 526 -136 786 -74 1162 23
138 83 397 106 454 10 27 26 95 34 150 20 137 32 178 57 210 l22 27 50 -18 50
-19 7 -67 c19 -190 133 -367 288 -445 100 -50 204 -68 314 -53 104 14 106 13
106 -67 0 -44 -4 -57 -26 -77 -37 -34 -123 -81 -164 -89 -19 -4 -87 -32 -150
-61 -107 -50 -136 -59 -184 -56 -17 1 -18 7 -12 74 19 198 19 192 1 207 -34
28 -49 1 -68 -126 -11 -65 -23 -127 -28 -136 -18 -34 0 -178 21 -178 15 0 234
77 310 109 42 17 100 47 130 67 100 66 105 67 160 49 27 -9 59 -15 71 -13 44
6 50 107 10 147 -13 13 -20 39 -23 87 -3 38 -8 76 -12 85 -5 12 5 18 45 28 85
22 205 88 258 142 40 40 51 47 60 35 8 -10 8 -21 1 -40 -5 -15 -10 -45 -10
-68 0 -31 -6 -45 -25 -60 -48 -38 -18 -76 32 -40 15 10 66 29 113 41 47 12
118 37 159 56 84 40 156 47 165 17 3 -9 5 -96 5 -192 -2 -240 16 -305 70 -251
28 28 36 85 21 140 -19 70 -24 199 -9 218 17 19 17 103 0 171 l-13 52 -44 0
c-35 0 -49 -5 -66 -25 -12 -14 -27 -25 -33 -25 -6 0 -28 17 -49 39 -41 42 -37
42 -145 10 -81 -24 -94 -24 -125 4 l-25 22 19 73 c21 80 21 80 165 272 175
232 228 318 272 441 23 66 26 92 31 251 l4 177 49 11 c27 7 52 16 55 21 13 22
34 6 45 -33z m169 -62 c-12 -12 -60 9 -60 27 0 7 6 19 13 26 10 10 16 7 34
-16 14 -17 19 -31 13 -37z m307 -177 c32 -12 150 -65 263 -119 113 -53 222
-102 242 -109 20 -7 42 -19 48 -27 15 -17 17 -17 -67 0 -134 29 -423 147 -536
219 -87 56 -59 76 50 36z m-142 -398 c69 -15 174 -27 425 -51 197 -19 302 -32
371 -46 26 -5 28 -11 48 -117 61 -328 85 -634 85 -1072 0 -777 -80 -1246 -395
-2325 -50 -168 -106 -362 -126 -432 -20 -71 -41 -128 -45 -128 -19 0 -21 39
-8 149 7 64 14 166 15 226 2 61 8 137 14 171 39 211 54 693 31 999 -5 72 -14
207 -20 300 -25 387 -93 785 -207 1210 -19 71 -36 146 -38 166 -4 37 -95 402
-165 655 -22 79 -40 154 -40 166 0 13 -7 45 -15 72 -20 64 -19 78 3 73 9 -3
40 -10 67 -16z m1609 -92 c89 -30 201 -83 243 -117 12 -9 85 -136 163 -282
313 -585 426 -762 647 -1017 35 -40 63 -77 63 -83 0 -23 169 -185 365 -348
243 -203 296 -255 504 -490 84 -95 185 -200 225 -233 83 -70 201 -132 283
-149 86 -18 253 -7 438 30 88 17 198 34 245 37 l85 5 0 -328 c0 -345 10 -458
55 -649 40 -172 122 -372 197 -487 28 -42 22 -65 -15 -53 -30 9 -116 106 -141
159 -11 26 -37 113 -56 194 -20 81 -52 198 -71 261 -70 224 -80 349 -44 516
34 158 43 222 36 268 l-7 44 -47 -4 c-26 -3 -138 -27 -249 -55 -206 -50 -293
-61 -383 -45 -44 7 -50 5 -140 -50 -222 -137 -345 -324 -366 -558 -7 -76 -7
-76 -33 -70 -45 10 -77 56 -90 127 -6 36 -11 77 -11 92 0 14 -9 53 -20 85 -25
76 -17 116 26 116 28 0 43 -18 68 -80 2 -5 90 77 195 183 205 207 199 198 153
261 -35 48 -92 71 -177 71 l-71 0 -69 -71 c-82 -82 -191 -159 -270 -188 -31
-12 -91 -24 -133 -28 l-77 -6 19 22 c25 28 79 57 201 110 122 52 171 84 209
138 l29 42 -102 128 c-151 189 -308 359 -466 504 -118 108 -145 129 -172 129
-53 0 -163 -27 -269 -65 -345 -127 -374 -135 -319 -89 41 35 103 65 220 109
177 66 240 106 276 177 l20 39 -28 52 c-31 59 -139 171 -226 237 l-59 44 -46
-25 c-70 -37 -152 -118 -293 -290 -152 -186 -220 -247 -306 -273 -20 -6 -23
-4 -23 21 0 56 40 102 244 277 74 64 153 137 175 163 85 96 128 229 111 340
-11 69 -21 84 -86 138 -75 61 -92 83 -124 169 -30 81 -78 158 -121 196 -23 20
-35 48 -58 130 -64 229 -139 340 -229 340 -22 0 -31 -6 -37 -22 -16 -54 -17
-283 -1 -483 9 -115 16 -230 16 -255 -1 -46 -31 -292 -36 -288 -9 11 -37 231
-54 423 -28 330 -52 471 -94 553 -18 35 -8 60 44 110 l42 40 -17 32 c-21 41
-82 68 -177 78 -72 8 -73 9 -38 20 51 17 152 5 254 -29z m-3054 -41 c0 -4 -15
-10 -32 -13 -163 -27 -248 -32 -248 -15 0 5 12 16 28 24 20 11 56 14 140 13
61 -1 112 -5 112 -9z m725 -528 c8 -13 -109 -69 -159 -77 -37 -6 -37 -6 -25
20 9 20 27 31 73 45 71 23 102 26 111 12z m2529 -375 c9 -46 -21 -338 -39
-381 -8 -19 -20 -34 -28 -34 -12 0 -12 7 -3 40 7 30 7 46 -1 59 -9 14 -8 48 3
142 8 68 19 132 24 141 6 10 10 34 10 54 0 30 2 34 14 25 8 -7 17 -27 20 -46z
m-5379 -296 c66 -5 224 -9 350 -8 309 2 311 2 355 -21 91 -47 121 -165 102
-407 -19 -234 -30 -441 -42 -793 -12 -324 -29 -561 -55 -734 -8 -55 -15 -104
-15 -109 0 -13 -350 -5 -374 9 -15 9 -20 24 -21 62 -1 28 -7 58 -14 66 -10 12
-7 18 20 31 30 16 45 16 110 0 24 -6 29 -2 50 42 37 75 32 152 -18 285 -23 58
-44 120 -48 137 -5 25 -12 31 -31 31 -14 0 -34 -5 -45 -11 -42 -22 -60 -19
-97 18 -33 33 -36 42 -37 93 0 55 1 58 63 125 34 37 62 71 62 75 0 4 -18 45
-39 91 -22 46 -52 126 -67 177 -16 50 -34 92 -40 92 -23 0 -99 -97 -123 -156
-13 -32 -37 -86 -53 -119 -37 -75 -34 -116 16 -188 63 -92 62 -93 -122 -89
-129 3 -176 0 -259 -17 -56 -12 -104 -21 -107 -21 -11 0 -17 75 -25 350 -10
300 3 922 19 965 6 15 19 25 37 28 57 8 332 6 448 -4z m10249 -110 c15 -11 35
-38 46 -59 18 -34 18 -41 5 -91 -8 -30 -15 -70 -15 -89 0 -19 -10 -53 -21 -75
l-22 -41 -126 4 c-174 6 -171 4 -171 97 0 90 14 128 70 189 75 82 177 110 234
65z m-4930 -158 c6 -41 0 -71 -15 -71 -5 0 -9 25 -9 55 0 64 15 73 24 16z
m4279 -18 c16 -9 5 -27 -52 -81 -68 -66 -97 -131 -69 -158 14 -14 21 -14 76 1
59 17 96 17 136 0 17 -8 18 -4 14 48 -5 58 -34 107 -65 107 -16 0 -16 1 -3 34
8 23 15 26 55 26 25 0 75 -7 110 -16 l65 -16 0 -52 c0 -28 7 -64 15 -80 8 -15
15 -36 15 -46 0 -24 45 -77 80 -95 52 -27 116 -36 172 -24 45 9 61 20 104 65
28 30 60 70 70 89 11 22 26 35 38 35 58 0 162 -84 192 -156 23 -54 18 -143
-11 -200 -14 -27 -25 -54 -25 -60 0 -6 -12 -21 -26 -35 -97 -90 -266 -316
-329 -440 -6 -12 -16 -17 -25 -13 -44 17 -80 15 -142 -10 -76 -31 -95 -32
-100 -8 -7 32 11 74 52 118 47 51 50 71 13 106 -57 52 -109 62 -143 28 -25
-25 -27 -94 -5 -147 9 -20 13 -44 10 -54 -6 -17 -8 -17 -38 1 -51 30 -128 43
-177 30 -46 -12 -110 -71 -130 -120 -19 -46 0 -99 55 -149 58 -53 86 -56 140
-15 28 21 75 33 75 19 0 -2 -22 -25 -50 -51 -53 -49 -90 -114 -90 -157 0 -15
7 -45 16 -67 57 -142 268 -78 299 91 6 31 -3 86 -22 136 -5 13 -2 13 20 -2 14
-9 58 -21 96 -26 97 -12 141 -31 141 -62 0 -31 -44 -86 -112 -140 -29 -24 -86
-69 -125 -101 -173 -138 -223 -301 -117 -381 29 -22 69 -18 204 20 142 40 146
41 154 19 18 -47 -5 -70 -79 -81 l-45 -6 0 -93 c0 -52 -3 -94 -7 -94 -5 0 -30
7 -58 15 -91 28 -307 63 -515 85 -342 34 -364 39 -376 85 -9 38 85 612 111
675 7 19 14 49 13 65 -1 35 45 266 62 310 13 34 35 175 49 321 6 55 17 117 26
137 42 100 113 431 115 528 0 29 5 37 28 46 24 10 95 8 115 -4z m-407 -62
c-28 -77 -36 -84 -36 -32 0 31 6 48 25 66 13 14 26 25 28 25 3 0 -5 -27 -17
-59z m204 47 c0 -7 -10 -77 -22 -155 -23 -148 -36 -173 -57 -110 -9 27 -8 41
5 72 11 28 15 62 12 122 l-3 83 33 0 c19 0 32 -5 32 -12z m-123 -97 c-6 -76
-16 -94 -39 -77 -17 12 -16 17 5 74 12 34 26 62 31 62 5 0 6 -27 3 -59z
m-3952 -101 c3 -4 -2 -27 -10 -50 -8 -23 -15 -56 -15 -73 0 -29 -1 -30 -16
-15 -13 13 -15 28 -9 86 6 62 9 69 26 65 11 -3 21 -9 24 -13z m3860 -66 c14
-9 25 -21 25 -28 0 -6 10 -31 21 -56 18 -38 21 -65 21 -166 l1 -121 -68 -159
c-38 -87 -74 -166 -80 -174 -6 -8 -28 -55 -49 -103 -42 -101 -57 -219 -37
-295 13 -48 31 -60 67 -44 13 7 24 7 24 2 0 -5 -20 -127 -44 -272 -25 -145
-48 -286 -51 -315 -7 -52 -7 -52 -53 -65 -31 -9 -48 -20 -50 -32 -6 -30 12
-39 54 -27 36 10 40 9 58 -14 26 -37 68 -55 160 -70 45 -8 106 -23 136 -33 30
-11 107 -25 170 -32 124 -12 160 -18 160 -29 -1 -3 -29 -22 -63 -42 -48 -29
-80 -39 -146 -48 -122 -16 -161 -14 -248 14 -43 14 -88 25 -101 25 -13 0 -38
11 -56 25 -18 14 -57 33 -87 44 -30 10 -73 29 -97 41 -41 22 -44 22 -62 5 -11
-10 -20 -24 -20 -32 0 -25 51 -62 114 -83 104 -34 103 -33 82 -131 -16 -77
-28 -109 -55 -148 -15 -23 -83 39 -135 122 -109 175 -180 390 -216 652 -28
210 -21 773 11 812 8 9 55 52 104 96 217 192 311 298 351 393 14 34 17 35 52
30 20 -4 43 -3 49 2 7 4 20 37 29 73 14 59 15 71 1 125 -20 77 -15 86 28 58z
m-3880 -198 c19 -13 18 -17 -19 -101 -21 -49 -43 -114 -49 -147 -6 -36 -14
-54 -19 -46 -15 24 -8 123 14 215 24 97 34 108 73 79z m-1415 -238 c0 -13 7
-113 15 -223 29 -388 16 -840 -29 -1079 -14 -70 -21 -85 -69 -145 -73 -89
-197 -259 -352 -481 -263 -377 -424 -579 -586 -735 -99 -95 -189 -170 -174
-145 5 8 52 85 105 170 523 843 859 1635 1004 2365 19 94 37 195 41 225 8 64
11 70 31 70 8 0 14 -10 14 -22z m-2655 -280 c35 -129 150 -470 227 -678 202
-542 547 -1266 854 -1792 93 -158 88 -145 53 -140 -19 3 -59 33 -120 90 -116
109 -190 198 -369 442 -155 211 -242 320 -314 390 -25 24 -46 50 -46 58 0 8
-16 64 -34 126 -114 365 -212 847 -271 1325 -29 238 -29 241 -11 241 8 0 20
-25 31 -62z m5187 48 c21 -8 50 -22 65 -31 26 -17 26 -19 8 -26 -11 -4 -39 -8
-61 -8 -23 -1 -149 -19 -280 -40 -312 -51 -316 -52 -309 -40 4 5 10 9 15 9 4
0 44 21 87 46 43 26 94 53 113 61 91 39 290 55 362 29z m2758 -104 c0 -19 -13
-95 -31 -189 -8 -39 -14 -51 -25 -46 -22 8 -18 137 6 188 11 22 19 46 20 53 0
19 30 14 30 -6z m1300 -337 c0 -37 -12 -109 -30 -176 -54 -210 -48 -196 -98
-225 -25 -15 -65 -44 -88 -66 -25 -23 -48 -36 -56 -33 -8 3 -71 -11 -139 -31
-189 -56 -219 -61 -235 -39 -18 25 -18 57 1 102 26 62 62 100 184 197 108 86
201 177 201 197 0 5 13 9 29 9 21 0 37 9 54 31 24 31 155 110 170 102 4 -2 7
-33 7 -68z m-3501 -135 c16 -8 17 -14 7 -53 -6 -24 -16 -50 -23 -58 -6 -8 -14
-46 -18 -85 -4 -39 -10 -76 -14 -83 -12 -19 -55 -4 -87 30 -26 27 -29 38 -29
92 0 47 6 71 24 100 35 57 95 82 140 57z m-367 -137 c22 -25 27 -57 8 -60 -26
-6 -50 20 -57 61 -6 35 -5 38 13 28 11 -6 27 -18 36 -29z m158 -328 c135 -132
185 -152 305 -121 64 17 110 7 120 -26 12 -37 -58 -65 -132 -52 -21 3 -93 23
-160 45 -67 21 -128 39 -136 39 -7 0 -34 41 -60 91 -44 85 -56 119 -40 119 4
0 50 -43 103 -95z m-8232 -223 c3 -32 3 -32 -42 -32 -52 0 -57 10 -21 46 34
34 59 28 63 -14z m322 -31 c17 -34 21 -93 10 -191 -18 -165 -33 -260 -41 -260
-5 0 -16 24 -25 53 -17 53 -33 369 -21 401 9 23 64 21 77 -3z m-709 -223 c-16
-29 -39 -79 -51 -110 -20 -53 -106 -344 -117 -396 -3 -12 -9 -25 -14 -28 -10
-6 -12 257 -3 358 6 62 11 72 56 125 50 59 109 103 141 103 15 0 13 -7 -12
-52z m2389 -1171 c0 -12 -6 -41 -13 -65 -10 -33 -15 -40 -25 -30 -16 16 -15
40 4 88 17 41 34 45 34 7z m63 -327 c7 -12 2 -26 -17 -54 -14 -21 -36 -69 -48
-107 -21 -67 -48 -93 -48 -47 0 35 31 150 52 191 20 40 42 46 61 17z m-192
-206 c10 -13 5 -48 -29 -212 -23 -108 -49 -242 -58 -297 -9 -55 -27 -134 -40
-175 -13 -41 -35 -140 -49 -220 -15 -80 -30 -149 -35 -154 -14 -14 -23 40 -16
87 4 23 23 159 41 302 45 334 68 447 105 503 22 33 31 61 36 113 7 71 19 85
45 53z"/>
<path d="M5318 9038 c-9 -7 -33 -35 -54 -63 -34 -44 -39 -58 -42 -116 -3 -55
0 -74 21 -115 43 -86 40 -144 -10 -190 -31 -28 -36 -38 -27 -52 16 -25 37 -25
68 -1 32 25 89 140 90 183 1 26 6 31 35 37 54 11 74 39 79 109 10 130 -91 261
-160 208z m34 -152 c4 -6 8 -19 8 -30 0 -13 -5 -16 -17 -11 -10 4 -25 9 -34
12 -11 3 -14 12 -11 29 4 20 9 23 26 18 11 -4 24 -12 28 -18z"/>
<path d="M4466 8998 c-28 -43 -104 -373 -93 -403 9 -21 44 -19 56 3 5 10 23
84 40 164 16 80 37 163 46 184 8 20 13 45 9 56 -8 25 -40 23 -58 -4z"/>
<path d="M4270 8421 c-81 -26 -170 -76 -231 -130 -67 -58 -142 -101 -180 -101
-52 0 -78 -74 -41 -119 l17 -22 57 31 c31 17 60 39 63 49 14 45 102 54 157 16
46 -31 83 -32 99 -3 24 45 106 122 154 144 87 41 173 24 244 -47 75 -74 91
-177 45 -279 -28 -63 -29 -93 -1 -98 25 -5 44 14 75 72 21 42 26 65 26 131 1
89 -22 156 -72 209 -47 49 -168 135 -212 151 -56 20 -132 18 -200 -4z"/>
<path d="M4356 8162 c-39 -62 -143 -99 -248 -87 -50 6 -58 5 -67 -14 -10 -17
-7 -23 14 -37 20 -13 43 -16 118 -12 101 5 163 27 217 78 44 41 40 110 -6 110
-2 0 -15 -17 -28 -38z"/>
<path d="M4062 7908 c-20 -20 -14 -33 36 -81 65 -60 104 -79 177 -85 49 -3 63
-1 75 13 25 30 1 49 -67 55 -62 5 -113 32 -163 85 -26 28 -40 31 -58 13z"/>
<path d="M3791 7704 c-38 -100 -22 -132 41 -79 16 14 35 25 41 25 7 0 41 -25
77 -56 102 -88 199 -126 230 -89 20 24 2 54 -40 65 -43 12 -116 63 -196 139
-46 43 -59 51 -92 51 -38 0 -40 -1 -61 -56z"/>
<path d="M4503 7314 c-10 -27 16 -94 36 -94 39 0 50 57 18 98 -13 17 -46 15
-54 -4z"/>
<path d="M3888 7139 c-22 -12 -23 -42 -4 -58 23 -19 146 -10 160 12 21 33 -4
52 -75 54 -35 2 -72 -2 -81 -8z"/>
<path d="M4472 6538 c-7 -7 -12 -36 -12 -66 0 -30 -5 -72 -11 -93 -15 -50 0
-73 37 -58 37 14 146 11 259 -7 201 -31 300 -18 340 43 9 13 15 26 13 28 -13
12 -221 37 -353 42 -157 6 -160 7 -187 34 -16 15 -28 36 -28 46 0 21 -18 43
-35 43 -6 0 -16 -5 -23 -12z"/>
<path d="M4586 5079 c-52 -41 -70 -115 -45 -188 9 -26 16 -31 45 -31 47 0 81
18 105 57 22 35 29 106 16 156 -7 24 -12 27 -51 27 -29 0 -52 -7 -70 -21z"/>
<path d="M1706 6004 c-7 -19 22 -84 41 -91 18 -7 17 -68 -2 -83 -20 -16 -19
-49 1 -57 24 -9 62 17 74 50 20 58 13 91 -32 146 -42 52 -71 64 -82 35z"/>
<path d="M1996 5965 c-56 -73 -81 -143 -81 -230 0 -59 5 -90 19 -118 22 -44
78 -107 94 -107 18 0 51 41 89 110 20 36 46 79 58 95 l22 30 -32 99 c-48 150
-112 196 -169 121z"/>
<path d="M2513 5974 c-35 -27 -93 -118 -112 -176 -11 -33 -8 -43 29 -129 39
-89 90 -159 116 -159 17 0 80 114 110 198 29 83 30 143 4 198 -19 38 -82 94
-106 94 -5 0 -24 -12 -41 -26z"/>
<path d="M1711 5664 c-31 -22 -61 -89 -61 -137 0 -52 22 -95 75 -147 43 -43
45 -43 45 -19 0 14 16 56 35 92 38 72 43 109 20 164 -26 61 -68 79 -114 47z"/>
<path d="M2694 4705 c-35 -46 -56 -121 -48 -168 7 -45 57 -99 88 -95 30 4 49
52 54 130 3 54 0 76 -17 112 -29 59 -45 63 -77 21z"/>
<path d="M2661 4360 l-34 -29 27 -50 c30 -58 31 -66 12 -103 -8 -15 -12 -29
-8 -32 12 -12 104 -5 134 10 27 14 29 19 24 47 -3 18 -19 59 -35 92 -17 33
-32 68 -35 78 -8 26 -46 20 -85 -13z"/>
<path d="M12154 5886 c-10 -26 1 -51 29 -64 22 -11 32 -11 55 0 36 18 38 59 2
69 -43 12 -80 10 -86 -5z"/>
<path d="M11612 5475 c-17 -38 -15 -92 4 -99 31 -12 63 -6 78 16 22 32 20 55
-9 83 -31 32 -59 32 -73 0z"/>
<path d="M11531 5351 c-34 -34 -27 -79 19 -135 22 -27 43 -59 46 -72 11 -44
74 -22 74 26 0 32 23 50 63 50 52 0 104 74 71 101 -8 6 -14 18 -14 25 0 10
-13 14 -40 14 -47 0 -80 -27 -80 -65 0 -41 -29 -30 -50 20 -11 25 -24 45 -29
45 -5 0 -16 3 -24 6 -9 3 -25 -4 -36 -15z"/>
<path d="M11086 4248 c-7 -18 -19 -64 -26 -101 -14 -74 -11 -72 -77 -52 -20 6
-24 1 -42 -60 -22 -70 -27 -131 -12 -153 7 -12 14 -11 39 2 29 15 31 14 67
-14 21 -17 39 -30 41 -30 12 0 35 124 31 170 -3 34 3 90 15 148 11 51 17 99
14 107 -10 26 -36 16 -50 -17z"/>
<path d="M12141 4080 c-33 -46 -39 -85 -18 -114 18 -24 50 -14 65 20 16 34 15
96 -2 119 -12 17 -15 16 -45 -25z"/>
<path d="M12723 4910 c-13 -21 -23 -53 -23 -69 0 -27 3 -31 28 -31 39 0 62 28
62 76 0 72 -34 84 -67 24z"/>
<path d="M12460 4816 c0 -31 18 -78 33 -88 29 -19 37 -8 37 52 l0 60 -35 0
c-30 0 -35 -3 -35 -24z"/>
<path d="M4783 918 c-11 -24 -26 -61 -33 -83 -8 -23 -40 -69 -74 -107 -60 -66
-119 -155 -254 -388 -63 -107 -129 -190 -152 -190 -21 0 -154 148 -278 309
-297 384 -433 516 -457 441 -5 -16 12 -38 82 -108 88 -87 164 -179 340 -408
51 -66 131 -160 179 -209 48 -50 88 -93 89 -97 1 -5 3 -12 4 -18 1 -9 81 -55
85 -48 1 2 9 23 16 48 8 25 29 64 46 87 35 45 81 121 199 320 71 121 176 263
194 263 10 0 89 -134 144 -245 63 -128 117 -267 117 -304 0 -18 7 -45 15 -60
8 -16 11 -31 8 -35 -4 -3 9 -6 28 -6 26 0 43 8 62 28 15 15 27 33 27 39 0 6
51 51 113 100 197 156 568 487 589 526 6 13 6 23 -3 33 -19 23 -43 16 -80 -22
-38 -40 -280 -260 -379 -345 -144 -124 -274 -220 -293 -217 -13 2 -30 31 -61
108 -52 130 -134 293 -193 384 l-45 69 28 70 c30 77 26 100 -18 105 -21 3 -29
-4 -45 -40z"/>
</g>
</svg>
